# xmcd
#
# Track frame offsets: 
#        150
#        10139
#        23873
#        34386
#        45873
#        57532
#        68949
#        79433
#        91380
#        103088
#        114906
#        125121
#        135165
#        146394
#        159751
#        172925
#        185765
#        198766
#        211536
#        223612
#        237545
#        249372
#        260421
#        274479
#        285172
#        298705
#        312633
#        325648
#        337988
#
# Disc length: 4694 seconds
#
# Revision: 0
# Processed by: cddbd v1.5.2PL0 Copyright (c) Steve Scherf et al.
# Submitted via: ExactAudioCopy v0.95b4
#
DISCID=a212541d
DTITLE=Hen Gates and His Gaters - Rock and Roll
DYEAR=1900
DGENRE=Instrumental
TTITLE0=Rock Me Sugar
TTITLE1=Rock Around My Baby
TTITLE2=Love To Rock With You
TTITLE3=Choo Choo Rock
TTITLE4=Rock Clock Rock
TTITLE5=Rockin' And Walkin'
TTITLE6=Great Gates Rock
TTITLE7=Shoe Shine Rock
TTITLE8=Juke Box Rock
TTITLE9=Rock Around Rosie
TTITLE10=Fish Beat Rock
TTITLE11=Rock 'N Time
TTITLE12=The New Rock
TTITLE13=Lose
TTITLE14=Auld Lang Syne Rock
TTITLE15=One O'Clock Rock
TTITLE16=Flash Rock
TTITLE17=Easter Parade Rock
TTITLE18=Rockin' The Coop
TTITLE19=Air Mail Rock
TTITLE20=Idaho Rock
TTITLE21=Swing Time Rock
TTITLE22=Dooby's Rock
TTITLE23=Tom's Rock
TTITLE24=Adam's Rock
TTITLE25=Rock Blues
TTITLE26=Fish Rock
TTITLE27=Two O'Clock Rock
TTITLE28=Music Makers Rock
EXTD=
EXTT0=
EXTT1=
EXTT2=
EXTT3=
EXTT4=
EXTT5=
EXTT6=
EXTT7=
EXTT8=
EXTT9=
EXTT10=
EXTT11=
EXTT12=
EXTT13=
EXTT14=
EXTT15=
EXTT16=
EXTT17=
EXTT18=
EXTT19=
EXTT20=
EXTT21=
EXTT22=
EXTT23=
EXTT24=
EXTT25=
EXTT26=
EXTT27=
EXTT28=
PLAYORDER=
